<svg xmlns="http://www.w3.org/2000/svg" width="64" height="64" viewBox="0 0 64 64" fill="none">
  <!-- Main mosque dome -->
  <path d="M32 8C24 8 18 14 18 22C18 30 24 36 32 36C40 36 46 30 46 22C46 14 40 8 32 8Z" fill="#2D6A4F"/>
  
  <!-- Mosque minarets -->
  <rect x="14" y="16" width="4" height="24" fill="#2D6A4F"/>
  <rect x="46" y="16" width="4" height="24" fill="#2D6A4F"/>
  
  <!-- Minaret tops -->
  <circle cx="16" cy="16" r="3" fill="#D4AF37"/>
  <circle cx="48" cy="16" r="3" fill="#D4AF37"/>
  
  <!-- Central minaret -->
  <rect x="30" y="4" width="4" height="16" fill="#2D6A4F"/>
  <circle cx="32" cy="4" r="3" fill="#D4AF37"/>
  
  <!-- Mosque base -->
  <rect x="20" y="36" width="24" height="20" fill="#1B5E20"/>
  
  <!-- Door -->
  <path d="M30 48L30 56L34 56L34 48C34 46 32 46 32 46C30 46 30 48 30 48Z" fill="#8B4513"/>
  
  <!-- Windows -->
  <rect x="24" y="42" width="3" height="4" fill="#FFD700"/>
  <rect x="37" y="42" width="3" height="4" fill="#FFD700"/>
  
  <!-- Star and crescent -->
  <path d="M32 26L33 28L35 28L33.5 29.5L34 31L32 30L30 31L30.5 29.5L29 28L31 28Z" fill="#FFD700"/>
  
  <!-- Ground -->
  <rect x="0" y="56" width="64" height="8" fill="#4A5D23"/>
</svg>
